<svg xmlns="http://www.w3.org/2000/svg" viewBox="0 0 354.01 403"><defs><style>.cls-1{fill:#f2f2f2;}</style></defs><title>iso</title><g id="Layer_2" data-name="Layer 2"><g id="Layer_1-2" data-name="Layer 1"><path class="cls-1" d="M326.45,67.95A18.6,18.6,0,1,1,306,51.44,18.62,18.62,0,0,1,326.45,67.95Zm-30,3.22a11.58,11.58,0,1,0,10.28-12.75A11.59,11.59,0,0,0,296.44,71.17Z"/><path class="cls-1" d="M353.94,41.35a11.93,11.93,0,1,1-13.14-10.59A11.95,11.95,0,0,1,353.94,41.35Zm-16.75,1.8a4.91,4.91,0,1,0,4.36-5.41A4.92,4.92,0,0,0,337.2,43.15Z"/><path class="cls-1" d="M320.56,13.17A14.74,14.74,0,1,1,304.33.09,14.76,14.76,0,0,1,320.56,13.17Zm-22.33,2.4a7.72,7.72,0,1,0,6.85-8.5A7.73,7.73,0,0,0,298.23,15.56Z"/><path class="cls-1" d="M217.23,146.46l31.05-36.08,17.15,13.83-29.83,37a3.81,3.81,0,0,0,.19,5l1.48,1.58A126.24,126.24,0,0,1,92,369.68l0,0L78.73,386.15h0a146.21,146.21,0,0,0,86.68,15.67c77.38-9.78,134.09-79.26,128.12-157a146.17,146.17,0,0,0-36-85.54l20.23-25.09,8.91,7.18a3.81,3.81,0,0,0,5.36-.58l13.56-16.83a3.81,3.81,0,0,0-.58-5.36L247.64,72.31a3.81,3.81,0,0,0-5.36.58L228.72,89.71a3.81,3.81,0,0,0,.58,5.36l6.09,4.91-20.15,25h0a146.22,146.22,0,0,0-86.77-15.65C51.22,119.13-5.4,188.4.41,266a146.42,146.42,0,0,0,48.93,98.87l-6.78,21.87L68.46,354a125.92,125.92,0,0,1-47.37-89.07c-5.15-66.1,42.44-125.47,108.08-134.8,37.9-5.39,72.79,11.33,72.8,11.32Z"/><path class="cls-1" d="M78.73,386.15h0a146.21,146.21,0,0,0,86.68,15.67c77.38-9.78,134.09-79.26,128.12-157a146.17,146.17,0,0,0-36-85.54l20.23-25.09,8.91,7.18a3.81,3.81,0,0,0,5.36-.58l13.56-16.83a3.81,3.81,0,0,0-.58-5.36l-20.31-16.37-19.31,22-29.83,37a3.81,3.81,0,0,0,.19,5l1.48,1.58A126.24,126.24,0,0,1,92,369.68l0,0Z"/><polygon class="cls-1" points="251.83 125.52 90.87 286.18 126.43 286.22 48.84 402.26 209.81 241.59 174.24 241.56 251.83 125.52"/></g></g></svg>