<svg xmlns="http://www.w3.org/2000/svg" viewBox="0 0 228.05 110.32"><defs><style>.cls-1{fill:#fff;}</style></defs><title>logo</title><g id="Layer_2" data-name="Layer 2"><g id="Layer_1-2" data-name="Layer 1"><path class="cls-1" d="M101.93,79.06V92.45h7.15v6.3H94.25V79.06Z"/><path class="cls-1" d="M124.56,96.48h-6.25l-.84,2.28h-8V98l7.6-19.16h8.7L133.39,98v.76h-8Zm-4.28-5.09h2.34l-1.18-5Z"/><path class="cls-1" d="M146.93,79.06a5.23,5.23,0,0,1,5.18,5.4A3.72,3.72,0,0,1,149.68,88c2.34.9,3.57,2.42,3.43,5a5.93,5.93,0,0,1-6.25,5.71H134.49V79.06Zm-4.76,7.32h1.43a1,1,0,0,0,0-2.05h-1.43Zm0,7h1.91a1.25,1.25,0,0,0,1.41-1.24,1.23,1.23,0,0,0-1.41-1.24h-1.91Z"/><path class="cls-1" d="M98.44,72.61V59.08H94.25V52.91h16.07v6.16h-4.19V72.61Z"/><path class="cls-1" d="M119.1,52.91v6.61h3.52V52.91h7.65v19.7h-7.65V65.74H119.1v6.87h-7.68V52.91Z"/><path class="cls-1" d="M140.9,66.73a1.27,1.27,0,0,0,1.41-1.24V52.91H150V65.52c0,5.12-4.47,7.48-9.06,7.48s-9.06-2.36-9.09-7.48V52.91h7.71V65.49A1.27,1.27,0,0,0,140.9,66.73Z"/><path class="cls-1" d="M159,69.21v3.41h-7.68V52.91h6.42l5.4,7.74-.48-4.14v-3.6h7.63v19.7h-6.42l-5.46-7.77Z"/><path class="cls-1" d="M180.61,52.91c5.77,0,11.09,2.36,11.09,9.88s-5.35,9.82-11.09,9.82h-9.2V52.91Zm0,13.68A3.48,3.48,0,0,0,184,62.82c0-1.94-1.13-3.88-3.41-3.88h-1.55v7.65Z"/><path class="cls-1" d="M192.56,52.91h15.79v5.8h-8.13V60H208v5.49h-7.82v1.29h8.13v5.8H192.56Z"/><path class="cls-1" d="M217.27,67.38v5.23h-7.68V52.91h8.5c4.9,0,9.65,1.38,9.65,7.26a6.22,6.22,0,0,1-2.9,5.74L228,72v.62h-7.74l-2.5-5.23Zm1-5.91c1.27,0,1.86-.34,1.86-1.29s-.59-1.35-1.86-1.35h-1.07v2.65Z"/><path class="cls-1" d="M89.37,18.6a5.09,5.09,0,1,1-5.61-4.52A5.1,5.1,0,0,1,89.37,18.6Zm-8.21.88A3.17,3.17,0,1,0,84,16,3.17,3.17,0,0,0,81.15,19.48Z"/><path class="cls-1" d="M96.89,11.32a3.27,3.27,0,1,1-3.6-2.9A3.27,3.27,0,0,1,96.89,11.32Zm-4.59.49a1.34,1.34,0,1,0,1.19-1.48A1.35,1.35,0,0,0,92.31,11.81Z"/><path class="cls-1" d="M87.75,3.6A4,4,0,1,1,83.31,0,4,4,0,0,1,87.75,3.6Zm-6.11.66a2.11,2.11,0,1,0,1.88-2.33A2.12,2.12,0,0,0,81.64,4.26Z"/><path class="cls-1" d="M59.47,40.09,68,30.22,72.66,34,64.5,44.13a1,1,0,0,0,.05,1.37l.4.43A34.56,34.56,0,0,1,25.19,101.2h0l-3.63,4.5h0a40.22,40.22,0,0,0,49-62.11L76,36.73l2.44,2A1,1,0,0,0,80,38.54l3.71-4.61a1,1,0,0,0-.16-1.47L67.79,19.79a1,1,0,0,0-1.47.16l-3.71,4.61A1,1,0,0,0,62.77,26l1.67,1.34-5.52,6.84h0A40.22,40.22,0,0,0,13.51,99.9l-1.86,6,7.09-9A34.56,34.56,0,0,1,35.36,35.62c10.38-1.47,19.93,3.1,19.93,3.1Z"/><path class="cls-1" d="M21.55,105.71h0a40.22,40.22,0,0,0,49-62.11L76,36.73l2.44,2A1,1,0,0,0,80,38.54l3.71-4.61a1,1,0,0,0-.16-1.47L77.95,28l-5.29,6L64.5,44.13a1,1,0,0,0,.05,1.37l.4.43A34.56,34.56,0,0,1,25.19,101.2h0Z"/><polygon class="cls-1" points="68.94 34.36 24.88 78.34 34.61 78.35 13.37 110.12 57.43 66.14 47.7 66.13 68.94 34.36"/></g></g></svg>