<svg xmlns="http://www.w3.org/2000/svg" viewBox="0 0 40.53 40.53"><defs><style>.cls-1{fill:none;}.cls-2{fill:#c5c7c8;}</style></defs><title>twet</title><g id="Layer_2" data-name="Layer 2"><g id="Layer_2-2" data-name="Layer 2"><rect class="cls-1" width="40.53" height="40.53"/><path class="cls-2" d="M34.54,10.68a11.69,11.69,0,0,1-3.36.92,5.88,5.88,0,0,0,2.58-3.24A11.72,11.72,0,0,1,30,9.78a5.86,5.86,0,0,0-10,5.34A16.63,16.63,0,0,1,8,9a5.86,5.86,0,0,0,1.81,7.82,5.82,5.82,0,0,1-2.65-.73s0,0,0,.07a5.86,5.86,0,0,0,4.7,5.74,5.87,5.87,0,0,1-2.65.1,5.86,5.86,0,0,0,5.47,4.07A11.83,11.83,0,0,1,6,28.5a16.57,16.57,0,0,0,9,2.63c10.77,0,16.66-8.92,16.66-16.67q0-.38,0-.76a11.89,11.89,0,0,0,2.92-3Zm0,0"/></g></g></svg>