<svg xmlns="http://www.w3.org/2000/svg" viewBox="0 0 372.69 372.69">
  <defs><style>.cls-1{fill:none;}.cls-2{fill:#3c3c3b;}</style></defs>
  <title>arbol</title>
  <g id="Layer_2" data-name="Layer 2"><g id="Capa_1" data-name="Capa 1"><rect class="cls-1" width="372.69" height="372.69"/><path class="cls-2" d="M239.6,263.35l-26.33,26.33-23-23v-64a75.71,75.71,0,1,0-7.92,0V267.9l-21.78,21.78-26.33-26.33L104,293.66l5.6,5.6,24.71-24.71,26.33,26.33,26.33-26.33,26.33,26.33,26.33-26.33,23.53,23.53,5.6-5.6Zm-121-136.28a67.8,67.8,0,1,1,67.8,67.8A67.87,67.87,0,0,1,118.55,127.08Z"/><path class="cls-2" d="M156.44,132a15.78,15.78,0,1,0,15.78,15.78A15.79,15.79,0,0,0,156.44,132Zm0,23.63a7.86,7.86,0,1,1,7.86-7.86A7.87,7.87,0,0,1,156.44,155.6Z"/><path class="cls-2" d="M206,135.93a15.78,15.78,0,1,0,15.78-15.78A15.79,15.79,0,0,0,206,135.93Zm15.78-7.86a7.86,7.86,0,1,1-7.86,7.86A7.87,7.87,0,0,1,221.8,128.07Z"/><path class="cls-2" d="M198.16,103.07a15.78,15.78,0,1,0-15.78-15.78A15.79,15.79,0,0,0,198.16,103.07Zm0-23.63a7.86,7.86,0,1,1-7.86,7.86A7.87,7.87,0,0,1,198.16,79.43Z"/></g></g>
</svg>