<svg xmlns="http://www.w3.org/2000/svg" viewBox="0 0 1357.82 1142.15">
  <defs><style>.cls-1{isolation:isolate;}.cls-2{mix-blend-mode:multiply;}.cls-3{fill:#2fac66;}</style></defs>
  <title>big-a</title>
  <g class="cls-1"><g id="Layer_2" data-name="Layer 2"><g id="Capa_1" data-name="Capa 1"><g class="cls-2"><path class="cls-3" d="M1268,930.26l89.79-89.8L1268,750.67l89.79-89.79L1268,571.08l89.79-89.8L1268,391.48l89.79-89.79L1268,211.89l89.79-89.8L1264,28.27H828.87V150.11Q722.28,0,504.71,0,280.63,0,140.31,164.24T0,570Q0,811.48,140.31,976.82t364.4,165.33q215.4,0,324.16-163.16v134.89H1264l93.83-93.83ZM783.18,707.05q-54.39,52.21-132.72,52.2t-132.7-52.2Q463.38,654.84,463.37,570q0-82.68,54.39-134.89t132.7-52.2q78.37,0,132.72,52.2T837.58,570Q837.58,654.84,783.18,707.05Z"/></g></g></g></g>
</svg>