<svg xmlns="http://www.w3.org/2000/svg" viewBox="0 0 372.69 372.69">
  <defs><style>.cls-1{fill:none;}.cls-2{fill:#3c3c3b;}</style></defs>
  <title>camion</title><g id="Layer_2" data-name="Layer 2"><g id="Capa_1" data-name="Capa 1"><rect class="cls-1" width="372.69" height="372.69"/><polygon class="cls-2" points="14.2 185.89 32.13 167.95 14.19 150.01 32.13 132.06 14.19 114.12 29.34 98.97 23.74 93.37 2.99 114.12 20.94 132.06 2.99 150.01 20.94 167.95 2.99 185.9 21.87 204.73 2.99 223.61 23.74 244.36 29.34 238.76 14.19 223.61 33.08 204.72 14.2 185.89"/><path class="cls-2" d="M326.58,174.27,269.7,117H228.83V92.55H42.67V252.32H83c-.05.73-.09,1.47-.09,2.21a31.64,31.64,0,0,0,63.28,0c0-.75,0-1.48-.09-2.21h82.72c-.05.73-.09,1.47-.09,2.21a31.64,31.64,0,1,0,63.28,0c0-.75,0-1.48-.09-2.21h34.66Zm-212,104a23.72,23.72,0,1,1,23.72-23.72A23.75,23.75,0,0,1,114.55,278.26Zm145.82,0a23.72,23.72,0,1,1,23.72-23.72A23.75,23.75,0,0,1,260.37,278.26Zm58.29-33.85H290.33a31.63,31.63,0,0,0-59.93,0H144.51a31.63,31.63,0,0,0-59.93,0h-34V100.47H220.91v24.47h45.5l52.26,52.6Z"/><path class="cls-2" d="M220.91,186.45h75.94V166.57l-29.23-28.93h-46.7Zm7.92-40.89h35.53l24.57,24.31v8.66h-60.1Z"/><path class="cls-2" d="M183.63,180.58l-6.18-6.18,6.18-6.18L177.45,162l6.18-6.18-6.18-6.18,6.18-6.18-6.18-6.18,6.18-6.18-8.83-8.83H141.51V127c-5.08-4.36-11.75-6.57-19.92-6.57-11,0-20,4.08-26.87,12.13S84.49,150.37,84.49,162s3.44,21.53,10.22,29.52,15.92,12.21,26.88,12.21c8.13,0,14.8-2.4,19.92-7.14v5.19H174.8l8.83-8.83-6.18-6.18Zm-6.72-37.06-6.18,6.18,6.18,6.18L170.73,162l6.18,6.18-6.18,6.18,6.18,6.18-6.18,6.18,6.18,6.18L172.83,197H146.26V182.26l-4.35,6.53C137.35,195.63,130.7,199,121.59,199c-9.63,0-17.24-3.45-23.25-10.53s-9.09-16-9.09-26.45,3.06-19.31,9.08-26.37,13.63-10.47,23.26-10.47c9.25,0,15.91,3.05,20.36,9.33l4.31,6.07V127.08h26.57l4.08,4.08-6.18,6.18Z"/><path class="cls-2" d="M131.61,146.73A15,15,0,0,0,120.84,151a14.63,14.63,0,0,0-4.47,11,14.82,14.82,0,0,0,4.47,11.14,15.77,15.77,0,0,0,21.55,0A14.82,14.82,0,0,0,146.86,162a14.63,14.63,0,0,0-4.47-11A15,15,0,0,0,131.61,146.73Zm7.48,23h0a11,11,0,0,1-15,0,10.11,10.11,0,0,1-3-7.71,9.92,9.92,0,0,1,3-7.56,11,11,0,0,1,15,0,9.93,9.93,0,0,1,3,7.57A10.11,10.11,0,0,1,139.1,169.69Z"/></g></g>
</svg>