<svg xmlns="http://www.w3.org/2000/svg" viewBox="0 0 372.69 372.69">
  <defs><style>.cls-1{fill:none;}.cls-2{fill:#3c3c3b;}</style></defs>
  <title>desk</title>
  <g id="Layer_2" data-name="Layer 2"><g id="Capa_1" data-name="Capa 1"><rect class="cls-1" width="372.69" height="372.69"/><path class="cls-2" d="M304.58,180.31H146.8v-16H131v-9.14h58.45V60.39H43.88v94.78h58.45v9.14H86.53v16H17.16V205H25.9v97.44H50.56V205h150v97.44h94.89V205h9.11ZM182.44,67.4V128H50.89V67.4ZM50.89,148.17V135H182.44v13.13H50.89Zm58.45,7H124v9.14H109.34Zm-15.8,16.15h46.24v9H93.54Zm-50,124.08H32.9V205H43.55Zm164,0V253.84h80.87V295.4Zm80.87-48.57H207.6V205h80.87ZM297.57,198H24.17V187.32H297.57Z"/><path class="cls-2" d="M262.36,214.32H233.7v23.16h28.66Zm-7,16.15H240.71v-9.14h14.64Z"/><path class="cls-2" d="M233.7,286.2h28.66V263H233.7Zm7-16.15h14.64v9.14H240.71Z"/><path class="cls-2" d="M252.28,175.87a9.84,9.84,0,0,0,8.88,5.53h.41l2-.75,2,.75H266a9.84,9.84,0,0,0,8.88-5.53l6.5-13.23a14.39,14.39,0,0,0-2.59-16.56,16.24,16.24,0,0,0-11.56-4.79h-.75l-.65.48v-8a2.27,2.27,0,1,0-4.53,0v8l-.65-.48h-.75a16.24,16.24,0,0,0-11.56,4.79,14.39,14.39,0,0,0-2.59,16.56Zm-.71-26.58a11.73,11.73,0,0,1,7.63-3.44l4.38,3.26,4.38-3.26a11.73,11.73,0,0,1,7.63,3.44,9.86,9.86,0,0,1,1.73,11.35l-6.51,13.23a5.41,5.41,0,0,1-4.44,3l-2.8-1-2.8,1a5.41,5.41,0,0,1-4.44-3l-6.51-13.23A9.86,9.86,0,0,1,251.57,149.29Z"/><path class="cls-2" d="M138.37,109l-3-3,3-3-3-3,3-3-3-3,3-3-3-3,3-3-4.3-4.3H117.84v2.25a14.41,14.41,0,0,0-9.71-3.2A16.5,16.5,0,0,0,95,85.52a21.44,21.44,0,0,0-5,14.36,21.58,21.58,0,0,0,5,14.39,16.45,16.45,0,0,0,13.1,6,13.76,13.76,0,0,0,9.71-3.48v2.53h16.23l4.31-4.3-3-3Zm-3.28-18.07-3,3,3,3-3,3,3,3-3,3,3,3-3,3,3,3-2,2h-13v-7.19L118,113c-2.22,3.34-5.46,5-9.91,5a14.05,14.05,0,0,1-11.34-5.14,19.33,19.33,0,0,1-4.43-12.89A19.19,19.19,0,0,1,96.78,87a14.1,14.1,0,0,1,11.34-5.1c4.51,0,7.75,1.49,9.93,4.55l2.1,3V82.87h13l2,2-3,3Z"/><path class="cls-2" d="M113,92.45a7.34,7.34,0,0,0-5.25,2.07,7.13,7.13,0,0,0-2.18,5.36,7.22,7.22,0,0,0,2.18,5.43,7.69,7.69,0,0,0,10.51,0,7.22,7.22,0,0,0,2.18-5.43,7.13,7.13,0,0,0-2.18-5.36A7.34,7.34,0,0,0,113,92.45Zm3.65,11.19h0a5.38,5.38,0,0,1-7.3,0,4.93,4.93,0,0,1-1.47-3.76,4.84,4.84,0,0,1,1.47-3.69,5.37,5.37,0,0,1,7.3,0,4.84,4.84,0,0,1,1.47,3.69A4.93,4.93,0,0,1,116.66,103.64Z"/></g></g>
</svg>