<?xml version="1.0" encoding="UTF-8"?>
<svg width="355px" height="58px" viewBox="0 0 355 58" version="1.1" xmlns="http://www.w3.org/2000/svg" xmlns:xlink="http://www.w3.org/1999/xlink">
    <!-- Generator: Sketch 43.2 (39069) - http://www.bohemiancoding.com/sketch -->
    <title>logo-verde</title>
    <desc>Created with Sketch.</desc>
    <defs>
        <polygon id="path-1" points="0 54.5051582 0 0.0586254102 44.8411041 0.0586254102 44.8411041 54.5051582 6.33219213e-16 54.5051582"></polygon>
    </defs>
    <g id="Page-1" stroke="none" stroke-width="1" fill="none" fill-rule="evenodd">
        <g id="Desktop-HD-Copy" transform="translate(-171.000000, -2626.000000)">
            <g id="logo-verde" transform="translate(171.000000, 2626.000000)">
                <g id="Page-1">
                    <g id="Group-3" transform="translate(0.000000, 2.549479)">
                        <mask id="mask-2" fill="white">
                            <use xlink:href="#path-1"></use>
                        </mask>
                        <g id="Clip-2"></g>
                        <path d="M43.7000154,4.54153126 L37.9926331,16.4415205 C34.1881962,14.3222846 30.4377969,13.2626667 26.7419198,13.2626667 C22.774401,13.2626667 20.7900358,14.3222846 20.7900358,16.4415205 C20.7900358,18.0716461 22.0125444,19.1855289 24.4590154,19.7834112 C24.8389744,19.8919408 25.9400802,20.1366171 27.7606365,20.5169555 C29.5816775,20.897294 31.1444044,21.2776324 32.4480904,21.6579708 C40.7107457,23.9400012 44.8411041,28.96604 44.8411041,36.7365716 C44.8411041,41.9530219 42.6396195,46.2188683 38.2368925,49.5328998 C33.8344078,52.847658 27.9368038,54.5051582 20.5457765,54.5051582 C12.44693,54.5051582 5.5979744,52.3859223 -0.00012116041,48.1476928 L7.01118942,36.4923798 C11.2510768,39.3175432 15.3550222,40.7577418 19.322541,40.8117644 C21.1159573,40.8660292 22.5291724,40.5942205 23.562186,39.9968227 C24.594715,39.3989405 25.1384829,38.6111312 25.1927628,37.633395 C25.2470427,36.763704 24.9203942,36.0572921 24.2137867,35.5141591 C23.5071792,34.9702995 22.3391928,34.5356962 20.708616,34.2096226 C16.3058891,33.3404161 12.8271314,32.3621955 10.27307,31.2756873 C7.6092372,30.1891792 5.52988225,28.4771719 4.03524744,26.1408766 C2.54085495,23.8040968 1.79329522,21.0600885 1.79329522,17.9086093 C1.79329522,12.9094607 3.95406997,8.68479734 8.27513481,5.23437702 C12.596442,1.78347219 18.2350051,0.0586254102 25.1927628,0.0586254102 C32.6390392,0.0586254102 38.8080427,1.55308886 43.7000154,4.54153126" id="Fill-1" fill="#2FAC66" mask="url(#mask-2)"></path>
                    </g>
                    <path d="M91.0690102,18.257382 C93.7871229,20.9199931 95.1450887,24.3159064 95.1450887,28.4456062 L95.1450887,55.9949462 L78.1063003,55.9949462 L78.1063003,33.4173802 C78.1063003,32.0050407 77.6572799,30.8773495 76.7606928,30.0347909 C75.8641058,29.1927168 74.7087201,28.7716798 73.2955051,28.7716798 C71.8820478,28.7716798 70.7278737,29.1927168 69.8303174,30.0347909 C68.9334881,30.8773495 68.4856792,32.0050407 68.4856792,33.4173802 L68.4856792,55.9949462 L51.4459215,55.9949462 L51.4459215,15.3232045 L67.7519317,15.3232045 L67.7519317,15.8120726 L67.7519317,20.7024493 C69.0556177,18.7462501 70.9178532,17.1841979 73.336215,16.0160502 C75.7548191,14.8476604 78.2417577,14.2635865 80.7960614,14.2635865 C84.9273891,14.2635865 88.3511399,15.5950132 91.0690102,18.257382" id="Fill-4" fill="#2FAC66"></path>
                    <path d="M193.716473,19.6426617 L186.704435,30.7277093 C185.128381,28.8260173 182.954278,27.8751713 180.181886,27.8751713 C178.117312,27.8751713 176.350067,28.5949072 174.882572,30.0348636 C173.415077,31.4748199 172.681087,33.2817907 172.681087,35.4552915 C172.681087,37.6287922 173.415077,39.435763 174.882572,40.8752349 C176.350067,42.3151912 178.14421,43.0354117 180.263305,43.0354117 C183.089735,43.0354117 185.39978,42.0845657 187.193923,40.1828736 L194.205234,51.2674367 C192.683217,52.8435397 190.604104,54.2016143 187.968381,55.3428718 C185.33193,56.483887 182.301951,57.0546368 178.8782,57.0546368 C171.920442,57.0546368 166.254739,54.9489671 161.879152,50.73787 C157.503565,46.5267729 155.31565,41.4866834 155.31565,35.618086 C155.31565,29.4238996 157.449285,24.315979 161.71607,20.2948088 C165.98237,16.2738809 171.594763,14.263417 178.551551,14.263417 C184.965541,14.263417 190.020596,16.0565793 193.716473,19.6426617" id="Fill-6" fill="#2FAC66"></path>
                    <polygon id="Fill-8" fill="#2FAC66" points="215.648397 36.5149094 215.648397 55.9950189 198.690301 55.9950189 198.690301 0 215.648397 0 215.648397 31.4612537 226.492254 15.3230349 245.977755 15.3230349 231.872987 33.5807319 246.384854 55.9950189 226.492254 55.9950189"></polygon>
                    <path d="M269.01081,20.7837981 C267.080724,22.9572988 266.11653,25.9731159 266.11653,29.8314915 C266.11653,33.6891404 267.080724,36.7049575 269.01081,38.8784583 C270.939683,41.0522013 273.454246,42.1389516 276.552076,42.1389516 C279.595868,42.1389516 282.095649,41.0522013 284.052632,38.8784583 C286.009615,36.7049575 286.987864,33.6891404 286.987864,29.8314915 C286.987864,25.9731159 286.009615,22.9572988 284.052632,20.7837981 C282.095649,18.6105396 279.595868,17.5237892 276.552076,17.5237892 C273.454246,17.5237892 270.939683,18.6105396 269.01081,20.7837981 M297.015584,9.86202949 C302.505847,14.8614204 305.25013,21.5173425 305.25013,29.8314915 C305.25013,38.1449139 302.505847,44.8013205 297.015584,49.8002268 C291.526291,54.7996177 284.705202,57.2987075 276.552076,57.2987075 C268.399192,57.2987075 261.577861,54.7996177 256.08784,49.8002268 C250.598547,44.8013205 247.853294,38.1449139 247.853294,29.8314915 C247.853294,21.5173425 250.598547,14.8614204 256.08784,9.86202949 C261.577861,4.86312313 268.399192,2.36330657 276.552076,2.36330657 C284.705202,2.36330657 291.526291,4.86312313 297.015584,9.86202949" id="Fill-10" fill="#006532"></path>
                    <path d="M350.907201,18.257382 C353.625072,20.9199931 354.984007,24.3159064 354.984007,28.4456062 L354.984007,55.9949462 L337.944249,55.9949462 L337.944249,33.4173802 C337.944249,32.0050407 337.495471,30.8773495 336.598884,30.0347909 C335.702297,29.1927168 334.546669,28.7716798 333.134423,28.7716798 C331.721208,28.7716798 330.565823,29.1927168 329.668993,30.0347909 C328.772406,30.8773495 328.32387,32.0050407 328.32387,33.4173802 L328.32387,55.9949462 L311.28387,55.9949462 L311.28387,15.3232045 L327.589881,15.3232045 L327.589881,15.8120726 L327.589881,20.7024493 C328.894536,18.7462501 330.755802,17.1841979 333.175133,16.0160502 C335.593737,14.8476604 338.079949,14.2635865 340.63498,14.2635865 C344.765338,14.2635865 348.190058,15.5950132 350.907201,18.257382" id="Fill-12" fill="#006532"></path>
                    <path d="M130.84699,40.7662934 C129.484905,42.0737369 127.823554,42.7268531 125.860755,42.7268531 C123.899653,42.7268531 122.238543,42.0737369 120.875489,40.7662934 C119.513403,39.4590921 118.831755,37.7429664 118.831755,35.6184009 C118.831755,33.5481003 119.513403,31.8593493 120.875489,30.5519058 C122.238543,29.2444622 123.899653,28.5913461 125.860755,28.5913461 C127.823554,28.5913461 129.484905,29.2444622 130.84699,30.5519058 C132.209076,31.8593493 132.890724,33.5481003 132.890724,35.6184009 C132.890724,37.7429664 132.209076,39.4590921 130.84699,40.7662934 L130.84699,40.7662934 Z M149.062246,49.1494848 L152.435595,45.7770702 L149.062246,42.4044133 L152.435595,39.0317564 L149.062246,35.6590996 L152.435595,32.2864427 L149.062246,28.9137858 L152.435595,25.5413712 L149.062246,22.1684721 L152.435595,18.7960575 L148.910554,15.271992 L132.563349,15.271992 L132.563349,15.5173951 L132.563349,19.8481656 C129.893458,16.0893562 125.834342,14.2101938 120.385031,14.2101938 C114.772639,14.2101938 110.20998,16.2664437 106.694632,20.3787013 C103.180011,24.4919279 101.423185,29.5717471 101.423185,35.6184009 C101.423185,41.6650548 103.180011,46.7577134 106.694632,50.8983147 C110.20998,55.0379469 114.772639,57.1080053 120.385031,57.1080053 C125.780062,57.1080053 129.83942,55.0658061 132.563349,50.9799542 L132.563349,55.8005618 L132.563349,56.0462071 L148.910554,56.0462071 L152.435595,52.5221416 L149.062246,49.1494848 Z" id="Fill-14" fill="#2FAC66"></path>
                </g>
            </g>
        </g>
    </g>
</svg>