<svg xmlns="http://www.w3.org/2000/svg" viewBox="0 0 260.68 260.68">
  <defs><style>.multiples-1{fill:none;}.multiples-2{fill:#706f6f;}.multiples-3{fill:#fff;}.multiples-4{fill:#010101;}</style></defs><title>multiples</title><g id="Layer_2" data-name="Layer 2"><g id="Capa_1" data-name="Capa 1"><rect class="multiples-1" width="260.68" height="260.68"/><path class="multiples-2" d="M40.9,157.19a1.73,1.73,0,0,0-2.44.2c-.24.28-.47.57-.7.86a1.73,1.73,0,1,0,2.72,2.14l.62-.76A1.73,1.73,0,0,0,40.9,157.19Z"/><path class="multiples-2" d="M72.83,123.27a1.73,1.73,0,0,0,2.44-.16c.24-.27.46-.55.65-.81a1.73,1.73,0,1,0-2.81-2c-.13.18-.28.37-.44.56A1.73,1.73,0,0,0,72.83,123.27Z"/><path class="multiples-2" d="M81.83,136.83c.09-.55.23-1.27.39-2.09.33-1.71.72-3.74,1-5.84h1a2.43,2.43,0,0,1,2.43,2.43v5.45a2.43,2.43,0,0,1-2.43,2.43H81.41C81.55,138.46,81.69,137.68,81.83,136.83ZM39,139.2h0a2.43,2.43,0,0,1-2.43-2.43v-5.45A2.43,2.43,0,0,1,39,128.89h1c.29,2.1.68,4.13,1,5.84.16.83.3,1.54.39,2.1.14.85.28,1.64.42,2.37Zm36.65,6.24a13.22,13.22,0,0,1-3.44,2.69c-.64.41-1.37.87-2.18,1.42a15.87,15.87,0,0,1-16.83,0c-.81-.55-1.54-1-2.18-1.42-3.07-2-4.28-2.72-5.38-7.41a1.72,1.72,0,0,0-.08-.35c-.25-1.13-.5-2.48-.77-4.1-.1-.6-.24-1.33-.4-2.19-.29-1.52-.66-3.44-.94-5.42,3.18-.44,10-1.59,14.58-3.8l1.14,2.73c.12.28.21.52.3.74.38,1,.74,1.89,1.83,2.26a2.34,2.34,0,0,0,.76.13,7,7,0,0,0,2.13-.52l.83-.28a29.61,29.61,0,0,0,5.89-3.11,1.73,1.73,0,1,0-1.92-2.88,26.6,26.6,0,0,1-5.06,2.7l-.86.29-.38.13c-.09-.23-.19-.49-.32-.79l-1.88-4.51A1.73,1.73,0,0,0,57.9,121c-3.74,2.44-11.42,3.76-14.86,4.25a15.74,15.74,0,0,1,.34-5.23c2.58-8.63,9.55-14,18.21-14s15.63,5.36,18.21,14a18.82,18.82,0,0,1,.21,6.76,1.72,1.72,0,0,0-.05.41s0,0,0,0c-.29,2.48-.77,5-1.13,6.88-.16.85-.3,1.59-.4,2.18-.24,1.47-.47,2.7-.7,3.76A16.34,16.34,0,0,1,75.62,145.44Zm7.15,31h0m14.29,2.24,1.69-3.46A37.18,37.18,0,0,0,80,144.62c.22-.58.43-1.23.63-2H84.2a5.89,5.89,0,0,0,5.89-5.89v-5.45a5.89,5.89,0,0,0-5.89-5.89h-.61a19.06,19.06,0,0,0-.48-6.43,23.22,23.22,0,0,0-8.24-12.13,22.55,22.55,0,0,0-26.57,0A23.22,23.22,0,0,0,40.06,119a19.06,19.06,0,0,0-.48,6.43H39a5.89,5.89,0,0,0-5.89,5.89v5.45A5.89,5.89,0,0,0,39,142.66h3.57c.2.73.41,1.38.63,2a37.18,37.18,0,0,0-18.76,30.6l1.69,3.46,1.77-3.46a33.61,33.61,0,0,1,17-27.58,12.64,12.64,0,0,0,2.78,2.42,30.45,30.45,0,0,0-4.78,3.09A1.73,1.73,0,1,0,45,155.88a27,27,0,0,1,4.38-2.81l1.6-.82.31.21.11.07a20.3,20.3,0,0,0,10.2,2.91h0a20.3,20.3,0,0,0,10.2-2.91l.11-.07c.79-.54,1.51-1,2.15-1.4a16.87,16.87,0,0,0,4.27-3.4,33.61,33.61,0,0,1,17,27.58Z"/><path class="multiples-2" d="M172.85,157.19a1.73,1.73,0,0,0-2.44.2c-.24.28-.47.57-.7.86a1.73,1.73,0,1,0,2.72,2.14l.62-.76A1.73,1.73,0,0,0,172.85,157.19Z"/><path class="multiples-2" d="M204.78,123.27a1.73,1.73,0,0,0,2.44-.16c.24-.27.46-.55.65-.81a1.73,1.73,0,1,0-2.81-2c-.13.18-.28.37-.44.56A1.73,1.73,0,0,0,204.78,123.27Z"/><path class="multiples-2" d="M213.78,136.83c.09-.55.23-1.27.39-2.09.33-1.71.72-3.74,1-5.84h1a2.43,2.43,0,0,1,2.43,2.43v5.45a2.43,2.43,0,0,1-2.43,2.43h-2.79C213.5,138.46,213.64,137.68,213.78,136.83Zm-42.86,2.37h0a2.43,2.43,0,0,1-2.43-2.43v-5.45a2.43,2.43,0,0,1,2.43-2.43h1c.29,2.1.68,4.13,1,5.84.16.83.3,1.54.39,2.1.14.85.28,1.64.42,2.37Zm36.65,6.24a13.22,13.22,0,0,1-3.44,2.69c-.64.41-1.37.87-2.18,1.42a15.87,15.87,0,0,1-16.83,0c-.81-.55-1.54-1-2.18-1.42-3.07-2-4.28-2.72-5.38-7.41a1.72,1.72,0,0,0-.08-.35c-.25-1.13-.5-2.48-.77-4.1-.1-.6-.24-1.33-.4-2.19-.29-1.52-.66-3.44-.94-5.42,3.18-.44,10-1.59,14.58-3.8l1.14,2.73c.12.28.21.52.3.74.38,1,.74,1.89,1.83,2.26a2.34,2.34,0,0,0,.76.13,7,7,0,0,0,2.13-.52l.83-.28a29.61,29.61,0,0,0,5.89-3.11,1.73,1.73,0,1,0-1.92-2.88,26.6,26.6,0,0,1-5.06,2.7l-.86.29-.38.13c-.09-.23-.19-.49-.32-.79l-1.88-4.51a1.73,1.73,0,0,0-2.54-.78c-3.74,2.44-11.42,3.76-14.86,4.25a15.74,15.74,0,0,1,.34-5.23c2.58-8.63,9.55-14,18.21-14s15.63,5.36,18.21,14a18.82,18.82,0,0,1,.21,6.76,1.72,1.72,0,0,0-.05.41s0,0,0,0c-.29,2.48-.77,5-1.13,6.88-.16.85-.3,1.59-.4,2.18-.24,1.47-.47,2.7-.7,3.76A16.34,16.34,0,0,1,207.58,145.44Zm7.15,31h0M229,178.69l1.69-3.46A37.18,37.18,0,0,0,212,144.62c.22-.58.43-1.23.63-2h3.57a5.89,5.89,0,0,0,5.89-5.89v-5.45a5.89,5.89,0,0,0-5.89-5.89h-.61a19.06,19.06,0,0,0-.48-6.43,23.22,23.22,0,0,0-8.24-12.13,22.55,22.55,0,0,0-26.57,0A23.22,23.22,0,0,0,172,119a19.06,19.06,0,0,0-.48,6.43h-.61a5.89,5.89,0,0,0-5.89,5.89v5.45a5.89,5.89,0,0,0,5.89,5.89h3.57c.2.73.41,1.38.63,2a37.18,37.18,0,0,0-18.76,30.6l1.69,3.46,1.77-3.46a33.61,33.61,0,0,1,17-27.58,12.64,12.64,0,0,0,2.78,2.42,30.45,30.45,0,0,0-4.78,3.09,1.73,1.73,0,1,0,2.14,2.72,27,27,0,0,1,4.38-2.81l1.6-.82.31.21.11.07a20.3,20.3,0,0,0,10.2,2.91h0a20.3,20.3,0,0,0,10.2-2.91l.11-.07c.79-.54,1.51-1,2.15-1.4a16.87,16.87,0,0,0,4.27-3.4,33.61,33.61,0,0,1,17,27.58Z"/><path class="multiples-3" d="M185.7,196.31h-3.83a54,54,0,0,0-27.23-44.44c.32-.85.63-1.79.92-2.85h5.18a8.56,8.56,0,0,0,8.55-8.55v-7.92a8.56,8.56,0,0,0-8.55-8.55h-.89a27.67,27.67,0,0,0-.69-9.34,33.72,33.72,0,0,0-12-17.61,32.74,32.74,0,0,0-38.58,0,33.72,33.72,0,0,0-12,17.61A27.68,27.68,0,0,0,96,124h-.89a8.56,8.56,0,0,0-8.55,8.55v7.92A8.56,8.56,0,0,0,95.07,149h5.18c.29,1.06.59,2,.92,2.85a54,54,0,0,0-27.23,44.44H70.1a2.51,2.51,0,1,0,0,5H92.86l2.48,8.26a2.51,2.51,0,0,0,2.41,1.79h60.31a2.51,2.51,0,0,0,2.41-1.79l2.48-8.26H185.7a2.51,2.51,0,0,0,0-5Z"/><path class="multiples-3" d="M104.34,196a2.51,2.51,0,0,0-1.78,3.08l.29,1.09a2.51,2.51,0,1,0,4.85-1.3l-.29-1.09A2.51,2.51,0,0,0,104.34,196Z"/><path class="multiples-3" d="M150.5,196.59a2.51,2.51,0,0,0,3.08-1.78l.29-1.09a2.51,2.51,0,1,0-4.85-1.3l-.29,1.09A2.51,2.51,0,0,0,150.5,196.59Z"/><path class="multiples-4" d="M97.86,170.12a2.51,2.51,0,0,0-3.54.3c-.35.41-.69.83-1,1.25a2.51,2.51,0,1,0,4,3.1c.29-.37.6-.74.9-1.11A2.51,2.51,0,0,0,97.86,170.12Z"/><path class="multiples-4" d="M144.23,120.87a2.51,2.51,0,0,0,3.55-.24c.35-.4.66-.79.94-1.18a2.51,2.51,0,1,0-4.08-2.94c-.19.26-.4.53-.65.81A2.51,2.51,0,0,0,144.23,120.87Z"/><path class="multiples-4" d="M185.7,196.31h-3.83a54,54,0,0,0-27.23-44.44c.32-.85.63-1.79.92-2.85h5.18a8.56,8.56,0,0,0,8.55-8.55v-7.92a8.56,8.56,0,0,0-8.55-8.55h-.89a27.67,27.67,0,0,0-.69-9.34,33.72,33.72,0,0,0-12-17.61,32.74,32.74,0,0,0-38.58,0,33.72,33.72,0,0,0-12,17.61A27.68,27.68,0,0,0,96,124h-.89a8.56,8.56,0,0,0-8.55,8.55v7.92A8.56,8.56,0,0,0,95.07,149h5.18c.29,1.06.59,2,.92,2.85a54,54,0,0,0-27.23,44.44H70.1a2.51,2.51,0,1,0,0,5H92.86l2.48,8.26a2.51,2.51,0,0,0,2.41,1.79h60.31a2.51,2.51,0,0,0,2.41-1.79l2.48-8.26H185.7a2.51,2.51,0,0,0,0-5Zm-28.4-55.76c.13-.8.33-1.84.56-3,.48-2.48,1-5.43,1.46-8.48h1.41a3.53,3.53,0,0,1,3.52,3.52v7.92a3.53,3.53,0,0,1-3.52,3.52h-4C156.89,142.93,157.09,141.79,157.3,140.55ZM95.07,144h0a3.53,3.53,0,0,1-3.52-3.52v-7.92A3.53,3.53,0,0,1,95.07,129h1.41c.42,3.05,1,6,1.46,8.48.23,1.2.43,2.24.56,3,.2,1.24.4,2.38.61,3.44Zm53.22,9.06a19.19,19.19,0,0,1-5,3.91c-.94.59-2,1.27-3.17,2.06a23,23,0,0,1-24.44,0c-1.18-.8-2.23-1.47-3.17-2.06-4.46-2.84-6.21-4-7.81-10.76a2.5,2.5,0,0,0-.12-.51c-.37-1.64-.73-3.6-1.12-6-.14-.87-.35-1.94-.58-3.17-.42-2.21-1-5-1.37-7.87,4.61-.64,14.51-2.31,21.17-5.51l1.65,4c.17.4.31.76.43,1.07.56,1.41,1.08,2.75,2.65,3.28a3.4,3.4,0,0,0,1.11.18,10.16,10.16,0,0,0,3.09-.76l1.2-.4a43,43,0,0,0,8.55-4.51,2.51,2.51,0,1,0-2.78-4.19,38.62,38.62,0,0,1-7.35,3.92l-1.25.42-.56.19c-.13-.33-.28-.71-.46-1.14l-2.73-6.55a2.51,2.51,0,0,0-3.69-1.14C117.12,121.07,106,123,101,123.69a22.86,22.86,0,0,1,.49-7.59c3.74-12.53,13.87-20.31,26.43-20.31s22.69,7.78,26.43,20.31c.75,2.52.69,6.12.3,9.82a2.5,2.5,0,0,0-.07.6s0,0,0,.05c-.42,3.61-1.11,7.24-1.64,10-.24,1.24-.44,2.3-.58,3.17-.35,2.13-.68,3.92-1,5.46A23.73,23.73,0,0,1,148.29,153.05Zm10.39,45h0l-2.48,8.28h-5.7l1-3.91a2.51,2.51,0,1,0-4.85-1.3l-1.39,5.21H99.62l-2.48-8.26v0l-3.54-11.8h5.54l1.39,5.21a2.51,2.51,0,0,0,4.85-1.3l-1-3.9h57.89Zm5.78-1.76L168,184.47a2.51,2.51,0,0,0-2.41-3.24H90.21a2.51,2.51,0,0,0-2.41,3.24l3.55,11.84H79a48.8,48.8,0,0,1,24.65-40,18.35,18.35,0,0,0,4,3.52,44.22,44.22,0,0,0-6.95,4.48,2.51,2.51,0,1,0,3.11,3.95,39.19,39.19,0,0,1,6.36-4.08l2.33-1.19.45.3.15.1a29.47,29.47,0,0,0,14.81,4.23h0a29.47,29.47,0,0,0,14.81-4.23l.15-.1c1.15-.78,2.2-1.45,3.12-2a24.5,24.5,0,0,0,6.2-4.94,48.8,48.8,0,0,1,24.65,40H164.45Z"/><path class="multiples-4" d="M104.34,196a2.51,2.51,0,0,0-1.78,3.08l.29,1.09a2.51,2.51,0,1,0,4.85-1.3l-.29-1.09A2.51,2.51,0,0,0,104.34,196Z"/><path class="multiples-4" d="M150.5,196.59a2.51,2.51,0,0,0,3.08-1.78l.29-1.09a2.51,2.51,0,1,0-4.85-1.3l-.29,1.09A2.51,2.51,0,0,0,150.5,196.59Z"/><path class="multiples-4" d="M208.56,178.32a11.55,11.55,0,0,0-8.22-3.41h-.48v-4.69a2,2,0,1,0-4,0v4.69h-.48a11.55,11.55,0,0,0-8.22,3.41,10.3,10.3,0,0,0-1.86,11.84l4.44,9a7.18,7.18,0,0,0,6.49,4h.37l1.29-.48,1.29.48h.37a7.18,7.18,0,0,0,6.49-4l4.44-9A10.3,10.3,0,0,0,208.56,178.32Zm-8.75,20.85-2-.74-2,.74a3.21,3.21,0,0,1-2.54-1.77l-4.44-9a6.26,6.26,0,0,1,1.09-7.21,7.57,7.57,0,0,1,4.74-2.2l3.13,2.33L201,179a7.57,7.57,0,0,1,4.74,2.2,6.26,6.26,0,0,1,1.09,7.21l-4.44,9A3.21,3.21,0,0,1,199.81,199.17Z"/></g></g>
</svg>