<?xml version="1.0" encoding="UTF-8"?>
<svg width="37px" height="38px" viewBox="0 0 37 38" version="1.1" xmlns="http://www.w3.org/2000/svg" xmlns:xlink="http://www.w3.org/1999/xlink">
    <!-- Generator: Sketch 43.2 (39069) - http://www.bohemiancoding.com/sketch -->
    <title>pinterest</title>
    <desc>Created with Sketch.</desc>
    <defs></defs>
    <g id="Page-1" stroke="none" stroke-width="1" fill="none" fill-rule="evenodd">
        <g id="Desktop-HD-Copy" transform="translate(-1185.000000, -60.000000)" fill-rule="nonzero" fill="#FFFFFF">
            <g id="Group-7" transform="translate(1185.000000, 60.000000)">
                <path d="M18.5405405,0.806125 C8.40151351,0.806125 0.181432432,8.9515 0.181432432,19.0013125 C0.181432432,26.71225 5.02316216,33.2905 11.8527027,35.9404375 C11.6951081,34.5045625 11.5467838,32.290375 11.9189189,30.72325 C12.25,29.3044375 14.0709459,21.6840625 14.0709459,21.6840625 C14.0709459,21.6840625 13.5253243,20.593375 13.5253243,18.9855625 C13.5253243,16.459 15.0072432,14.56375 16.8440811,14.56375 C18.4081081,14.56375 19.1695946,15.7279375 19.1695946,17.123125 C19.1695946,18.682375 18.1684054,21.0199375 17.6466216,23.1776875 C17.2082703,24.99025 18.5577568,26.4668125 20.3614865,26.4668125 C23.621973,26.4668125 26.1302432,23.0543125 26.1302432,18.1324375 C26.1302432,13.77625 22.9690811,10.7325625 18.4663784,10.7325625 C13.2432432,10.7325625 10.1814054,14.6123125 10.1814054,18.6325 C10.1814054,20.199625 10.7852973,21.8730625 11.5467838,22.7839375 C11.6964324,22.96375 11.7202703,23.1199375 11.6712703,23.3089375 C11.5308919,23.8838125 11.2236486,25.1215 11.1587568,25.376125 C11.0753243,25.712125 10.8938919,25.77775 10.5455946,25.622875 C8.25318919,24.565 6.82027027,21.2430625 6.82027027,18.5760625 C6.82027027,12.833875 11.025,7.568125 18.9457838,7.568125 C25.3104865,7.568125 30.2608108,12.0634375 30.2608108,18.076 C30.2608108,24.3431875 26.2719459,29.3963125 20.7336216,29.3963125 C18.8716216,29.3963125 17.1248378,28.436875 16.5288919,27.3041875 C16.5288919,27.3041875 15.6098108,30.7744375 15.386,31.6275625 C14.9714865,33.2104375 13.8550811,35.1870625 13.1015405,36.39325 C14.8231622,36.91825 16.6441081,37.2056875 18.5392162,37.2056875 C28.6782432,37.2056875 36.8983243,29.0603125 36.8983243,19.0105 C36.8983243,8.954125 28.6795676,0.8074375 18.5392162,0.8074375 L18.5405405,0.806125 Z" id="pinterest"></path>
            </g>
        </g>
    </g>
</svg>