<svg xmlns="http://www.w3.org/2000/svg" viewBox="0 0 260.68 260.68">
  <defs><style>.singular-1{fill:none;}.singular-2{fill:#010101;}</style></defs><title>singular</title><g id="Layer_2" data-name="Layer 2"><g id="Capa_1" data-name="Capa 1"><rect class="singular-1" width="260.68" height="260.68"/><path class="singular-2" d="M85.31,151.87a3.16,3.16,0,0,0-4.45.37c-.43.51-.87,1-1.28,1.57a3.16,3.16,0,1,0,5,3.9c.37-.47.75-.94,1.14-1.39A3.16,3.16,0,0,0,85.31,151.87Z"/><path class="singular-2" d="M143.62,89.93a3.16,3.16,0,0,0,4.46-.3c.44-.5.83-1,1.18-1.48a3.16,3.16,0,1,0-5.13-3.69c-.23.33-.51.67-.81,1A3.16,3.16,0,0,0,143.62,89.93Z"/><path class="singular-2" d="M195.77,184.81H191a67.89,67.89,0,0,0-34.25-55.89c.41-1.07.79-2.25,1.15-3.59h6.52a10.76,10.76,0,0,0,10.75-10.75v-10a10.76,10.76,0,0,0-10.75-10.75h-1.12a34.8,34.8,0,0,0-.87-11.75,42.4,42.4,0,0,0-15-22.14,41.17,41.17,0,0,0-48.52,0,42.41,42.41,0,0,0-15,22.14,34.81,34.81,0,0,0-.87,11.75H81.8A10.76,10.76,0,0,0,71,104.62v10A10.76,10.76,0,0,0,81.8,125.33h6.51c.37,1.33.75,2.52,1.15,3.59a67.89,67.89,0,0,0-34.25,55.89H50.4a3.16,3.16,0,1,0,0,6.32H79l3.12,10.39a3.16,3.16,0,0,0,3,2.25H161a3.16,3.16,0,0,0,3-2.25l3.12-10.39h28.62a3.16,3.16,0,0,0,0-6.32Zm-35.72-70.12c.17-1,.42-2.31.71-3.82.6-3.11,1.31-6.83,1.84-10.67h1.78a4.43,4.43,0,0,1,4.43,4.43v10a4.43,4.43,0,0,1-4.43,4.43h-5.09C159.54,117.68,159.8,116.24,160.05,114.68ZM81.8,119h0a4.43,4.43,0,0,1-4.43-4.43v-10a4.43,4.43,0,0,1,4.43-4.43h1.78c.53,3.84,1.24,7.55,1.84,10.66.29,1.51.54,2.82.71,3.83.26,1.55.51,3,.76,4.33Zm66.92,11.4c-1.51,1.88-3.46,3.13-6.28,4.92-1.18.75-2.51,1.59-4,2.6a29,29,0,0,1-30.74,0c-1.48-1-2.81-1.85-4-2.6-5.61-3.57-7.82-5-9.82-13.53a3.14,3.14,0,0,0-.15-.64c-.46-2.06-.92-4.52-1.41-7.49-.18-1.09-.44-2.44-.74-4-.53-2.78-1.2-6.27-1.72-9.89,5.8-.81,18.24-2.91,26.62-6.93l2.08,5c.21.51.39,1,.54,1.35.7,1.78,1.36,3.46,3.33,4.12a4.28,4.28,0,0,0,1.39.23,12.77,12.77,0,0,0,3.89-.95l1.51-.51A54.07,54.07,0,0,0,140,96.39a3.16,3.16,0,1,0-3.5-5.26,48.56,48.56,0,0,1-9.24,4.93l-1.57.53-.7.24c-.16-.42-.35-.9-.58-1.44L121,87.16a3.16,3.16,0,0,0-4.64-1.43c-6.84,4.46-20.86,6.87-27.14,7.76a28.74,28.74,0,0,1,.62-9.55c4.71-15.75,17.44-25.54,33.24-25.54s28.54,9.79,33.24,25.54c.95,3.17.86,7.7.37,12.35a3.15,3.15,0,0,0-.09.75s0,0,0,.07c-.52,4.54-1.4,9.11-2.06,12.57-.3,1.55-.56,2.9-.74,4-.44,2.68-.85,4.93-1.27,6.87A29.85,29.85,0,0,1,148.72,130.41ZM161.79,187h0l-3.12,10.41h-7.17l1.32-4.91a3.16,3.16,0,0,0-6.11-1.64l-1.75,6.55H87.52L84.4,187.05v0l-4.45-14.84h7l1.75,6.55a3.16,3.16,0,0,0,6.11-1.64l-1.32-4.91h72.81Zm7.26-2.22,4.47-14.89a3.16,3.16,0,0,0-3-4.07H75.68a3.16,3.16,0,0,0-3,4.07l4.47,14.89H61.54a61.37,61.37,0,0,1,31-50.36,23.08,23.08,0,0,0,5.07,4.43,55.61,55.61,0,0,0-8.74,5.63,3.16,3.16,0,1,0,3.91,5,49.29,49.29,0,0,1,8-5.13l2.93-1.5.56.38.19.12a37.06,37.06,0,0,0,18.62,5.31h0a37.06,37.06,0,0,0,18.63-5.32l.19-.12c1.44-1,2.76-1.82,3.93-2.56,3.41-2.17,5.88-3.85,7.8-6.22a61.37,61.37,0,0,1,31,50.36H169.05Z"/><path class="singular-2" d="M93.46,184.45a3.16,3.16,0,0,0-2.23,3.87l.37,1.38a3.16,3.16,0,1,0,6.11-1.64l-.37-1.38A3.16,3.16,0,0,0,93.46,184.45Z"/><path class="singular-2" d="M151.51,185.16a3.16,3.16,0,0,0,3.87-2.23l.37-1.38a3.16,3.16,0,1,0-6.1-1.64l-.37,1.38A3.16,3.16,0,0,0,151.51,185.16Z"/><path class="singular-2" d="M224.52,162.18a14.53,14.53,0,0,0-10.34-4.28h-.61V152a2.54,2.54,0,1,0-5.08,0v5.89h-.61a14.53,14.53,0,0,0-10.34,4.28,13,13,0,0,0-2.34,14.89l5.58,11.35A9,9,0,0,0,209,193.5h.46l1.62-.61,1.62.61h.46a9,9,0,0,0,8.16-5.08l5.58-11.35A13,13,0,0,0,224.52,162.18Zm-11,26.23-2.48-.93-2.48.93a4,4,0,0,1-3.2-2.22l-5.58-11.35a7.87,7.87,0,0,1,1.37-9.06,9.53,9.53,0,0,1,6-2.76l3.94,2.93L215,163a9.52,9.52,0,0,1,6,2.76,7.87,7.87,0,0,1,1.37,9.06l-5.58,11.35A4,4,0,0,1,213.52,188.41Z"/></g></g>
</svg>