<?xml version="1.0" encoding="UTF-8"?>
<svg width="43px" height="35px" viewBox="0 0 43 35" version="1.1" xmlns="http://www.w3.org/2000/svg" xmlns:xlink="http://www.w3.org/1999/xlink">
    <!-- Generator: Sketch 43.2 (39069) - http://www.bohemiancoding.com/sketch -->
    <title>tweeter</title>
    <desc>Created with Sketch.</desc>
    <defs></defs>
    <g id="Page-1" stroke="none" stroke-width="1" fill="none" fill-rule="evenodd">
        <g id="Desktop-HD-Copy" transform="translate(-1347.000000, -62.000000)" fill-rule="nonzero" fill="#FFFFFF">
            <g id="Group-7" transform="translate(1185.000000, 60.000000)">
                <path d="M204.702703,6.0359375 C203.146622,6.725 201.466054,7.184375 199.711324,7.389125 C201.507108,6.3220625 202.881757,4.632875 203.534649,2.6234375 C201.854081,3.6078125 199.992081,4.3296875 198.013541,4.7155625 C196.424351,3.042125 194.165054,2 191.66473,2 C186.864054,2 182.973189,5.856125 182.973189,10.6139375 C182.973189,11.2859375 183.047351,11.9421875 183.197,12.5748125 C175.971486,12.213875 169.564405,8.7843125 165.277568,3.5684375 C164.531973,4.84025 164.102892,6.3246875 164.102892,7.8996875 C164.102892,10.885625 165.633811,13.526375 167.968595,15.069875 C166.544946,15.0291875 165.20473,14.6354375 164.02873,13.9949375 L164.02873,14.10125 C164.02873,18.2763125 167.025676,21.763625 171.006595,22.5498125 C170.278216,22.7466875 169.508784,22.853 168.714189,22.853 C168.151351,22.853 167.613676,22.79525 167.076,22.6968125 C168.185784,26.1171875 171.39727,28.6109375 175.195432,28.68575 C172.215703,30.998375 168.474486,32.3778125 164.394243,32.3778125 C163.691027,32.3778125 163.003703,32.337125 162.316378,32.2544375 C166.174135,34.7075 170.74173,36.1263125 175.651,36.1263125 C191.642216,36.1263125 200.390703,22.9934375 200.390703,11.6075 C200.390703,11.2308125 200.382757,10.8606875 200.365541,10.491875 C202.062,9.2856875 203.535973,7.7684375 204.702703,6.03725 L204.702703,6.0359375 Z" id="tweeter"></path>
            </g>
        </g>
    </g>
</svg>